<svg xmlns="http://www.w3.org/2000/svg">
  <symbol id="icon-star" viewBox="0 0 16 20" width="20" height="20">
    <path d="M17.2168 5.79584L12.2598 5.32991C11.9473 5.30167 11.6774 5.10401 11.5496 4.80751L9.77417 0.529461C9.4901 -0.176487 8.48164 -0.176487 8.19757 0.529461L6.43632 4.80751C6.3227 5.10401 6.03862 5.30167 5.72615 5.32991L0.769095 5.79584C0.0305089 5.86643 -0.267766 6.78417 0.286173 7.27833L4.02172 10.5398C4.26318 10.7516 4.3626 11.0622 4.29158 11.3728L3.1695 15.9474C2.99906 16.6674 3.78025 17.2604 4.43362 16.8792L8.56686 14.4649C8.83673 14.3096 9.16341 14.3096 9.43328 14.4649L13.5665 16.8792C14.2199 17.2604 15.0011 16.6816 14.8306 15.9474L13.7228 11.3728C13.6517 11.0622 13.7512 10.7516 13.9926 10.5398L17.7282 7.27833C18.2679 6.78417 17.9554 5.86643 17.2168 5.79584Z" fill="#FC9B09"/>
  </symbol>

  <symbol id="icon-tick" width="17" height="15" viewBox="0 0 17 15" fill="none">
    <path d="M1 6.5L6.6 12.5L16 1" stroke="currentColor" stroke-width="2.5"/>
  </symbol>

  <symbol id="icon-calendar" width="35" height="35" viewBox="0 0 35 35" fill="none">
    <path fill-rule="evenodd" clip-rule="evenodd" d="M25.5 9.68518H23.0601V8.56006C23.0601 8.41152 23.001 8.26907 22.896 8.16403C22.791 8.059 22.6485 8 22.5 8C22.3515 8 22.209 8.059 22.104 8.16403C21.999 8.26907 21.9399 8.41152 21.9399 8.56006V9.68518H18.5601V8.56006C18.5601 8.41152 18.501 8.26907 18.396 8.16403C18.291 8.059 18.1485 8 18 8C17.8515 8 17.709 8.059 17.604 8.16403C17.499 8.26907 17.4399 8.41152 17.4399 8.56006V9.68518H14.0601V8.56006C14.0601 8.41152 14.001 8.26907 13.896 8.16403C13.791 8.059 13.6485 8 13.5 8C13.3515 8 13.209 8.059 13.104 8.16403C12.999 8.26907 12.9399 8.41152 12.9399 8.56006V9.68518H10.5C10.1022 9.68518 9.72076 9.84324 9.43945 10.1246C9.15815 10.4059 9 10.7875 9 11.1854V24.4998C9 24.8977 9.15815 25.2793 9.43945 25.5606C9.72076 25.8419 10.1022 26 10.5 26H25.5C25.8978 26 26.2792 25.8419 26.5605 25.5606C26.8419 25.2793 27 24.8977 27 24.4998V11.1854C27 10.7875 26.8419 10.4059 26.5605 10.1246C26.2792 9.84324 25.8978 9.68518 25.5 9.68518ZM25.8701 24.4998C25.8709 24.5489 25.862 24.5976 25.8438 24.6431C25.8255 24.6887 25.7981 24.7301 25.7637 24.765C25.7292 24.8 25.6883 24.8276 25.6431 24.8465C25.5978 24.8654 25.5491 24.875 25.5 24.8749H10.5C10.3999 24.8754 10.3037 24.8362 10.2324 24.7659C10.1612 24.6956 10.1209 24.5999 10.1201 24.4998V11.1854C10.1209 11.0853 10.1612 10.9896 10.2324 10.9193C10.3037 10.849 10.3999 10.8098 10.5 10.8103H12.9399V11.9354C12.9399 12.084 12.999 12.2264 13.104 12.3315C13.209 12.4365 13.3515 12.4955 13.5 12.4955C13.6485 12.4955 13.791 12.4365 13.896 12.3315C14.001 12.2264 14.0601 12.084 14.0601 11.9354V10.8103H17.4399V11.9354C17.4399 12.084 17.499 12.2264 17.604 12.3315C17.709 12.4365 17.8515 12.4955 18 12.4955C18.1485 12.4955 18.291 12.4365 18.396 12.3315C18.501 12.2264 18.5601 12.084 18.5601 11.9354V10.8103H21.9399V11.9354C21.9399 12.084 21.999 12.2264 22.104 12.3315C22.209 12.4365 22.3515 12.4955 22.5 12.4955C22.6485 12.4955 22.791 12.4365 22.896 12.3315C23.001 12.2264 23.0601 12.084 23.0601 11.9354V10.8103H25.5C25.5491 10.8102 25.5978 10.8198 25.6431 10.8387C25.6883 10.8575 25.7292 10.8852 25.7637 10.9202C25.7981 10.9551 25.8255 10.9965 25.8438 11.0421C25.862 11.0876 25.8709 11.1363 25.8701 11.1854V24.4998ZM12.9399 14.7488H15.1899V16.4359H12.9399V14.7488ZM12.9399 17.5611H15.1899V19.2493H12.9399V17.5611ZM12.9399 20.3744H15.1899V22.0616H12.9399V20.3744ZM16.8701 20.3744H19.1201V22.0616H16.8701V20.3744ZM16.8701 17.5611H19.1201V19.2493H16.8701V17.5611ZM16.8701 14.7488H19.1201V16.4359H16.8701V14.7488ZM20.8101 20.3744H23.0601V22.0616H20.8101V20.3744ZM20.8101 17.5611H23.0601V19.2493H20.8101V17.5611ZM20.8101 14.7488H23.0601V16.4359H20.8101V14.7488Z" fill="#83888A"/>
    <rect x="0.25" y="0.25" width="34.5" height="34.5" rx="2.75" stroke="#C4C4C4" stroke-width="0.5"/>
  </symbol>

  <symbol id="icon-vk" width="26" height="16" viewBox="0 0 26 16" fill="none">
    <path fill-rule="evenodd" clip-rule="evenodd" d="M25.0593 1.34671C25.1479 1.3744 25.229 1.42146 25.2971 1.4845C25.3652 1.54754 25.4189 1.62495 25.4534 1.71114C25.4878 1.79732 25.5027 1.89011 25.4968 1.98275C25.4909 2.07538 25.4642 2.16556 25.4192 2.24671C25.2992 2.47971 25.1691 2.7067 25.0491 2.9337C25.0476 3.01323 25.0268 3.0912 24.9885 3.16089C24.9502 3.23058 24.8957 3.2899 24.8293 3.33371C23.725 5.34087 22.4432 7.24513 20.9992 9.0237C20.9944 9.02522 20.9901 9.02796 20.9866 9.03163C20.9831 9.03531 20.9805 9.03981 20.9792 9.04471C22.6492 10.2277 26.6392 13.2447 24.6892 14.9447C23.6692 15.8377 20.7091 15.6877 19.5691 15.1817C18.9084 14.8425 18.2934 14.4208 17.739 13.9267C16.759 13.1367 16.4891 13.1827 15.6091 14.0267C14.4791 15.1117 13.8494 15.7987 12.1794 15.6017C10.1849 15.2539 8.32981 14.3479 6.82933 12.9887C3.4438 10.0405 1.05985 6.1113 0.00901499 1.74671C-0.00445804 1.67883 -0.00269686 1.60884 0.0134095 1.54154C0.0295159 1.47424 0.0600229 1.41121 0.102765 1.35678C0.145507 1.30236 0.199402 1.25783 0.260968 1.22623C0.322534 1.19463 0.390073 1.17671 0.45921 1.17371C0.47921 1.17371 0.479249 1.16371 0.499249 1.15871C2.07974 0.874933 3.69259 0.817351 5.28929 0.987704C5.41579 1.00343 5.53429 1.05752 5.62913 1.1427C5.67589 1.16149 5.71727 1.19175 5.74925 1.2307C6.97925 2.7127 7.51905 4.66971 8.79905 6.11071C9.41905 6.81071 9.61942 6.69471 9.67943 5.73371C9.70775 5.32129 9.71086 4.90753 9.68919 4.49471C9.62919 3.41571 9.24909 2.47071 9.08909 1.42171C9.05895 1.28436 9.08441 1.14065 9.15941 1.0217C9.17637 0.903064 9.23091 0.793134 9.31566 0.708392C9.4004 0.62365 9.5105 0.568664 9.62913 0.551699C11.1537 0.452925 12.6825 0.432235 14.2092 0.489703C14.3038 0.460465 14.4052 0.462152 14.4988 0.494525C14.5923 0.526898 14.673 0.588277 14.7292 0.669711C14.7864 0.686354 14.8381 0.718212 14.8786 0.761889C14.9192 0.805567 14.9469 0.859425 14.9592 0.917712C15.1391 1.86004 15.1998 2.82126 15.1394 3.7787C15.1294 4.2387 15.1191 4.70271 15.1091 5.16271C15.0991 5.42571 15.0993 5.6897 15.0993 5.9527C14.9993 6.4387 15.1894 6.62371 15.6594 6.51071C16.4494 6.59771 16.6591 5.9267 17.0491 5.3107C17.2791 4.9447 17.4992 4.5677 17.7092 4.1857C18.2092 3.2857 18.569 2.34271 19.029 1.42771C19.0619 1.35456 19.1135 1.29131 19.1784 1.24428C19.2434 1.19725 19.3194 1.16808 19.3992 1.1597C19.4453 1.13367 19.4963 1.11766 19.5491 1.1127C21.3886 0.975475 23.2381 1.05402 25.0593 1.34671Z" fill="#5476A4"/>
  </symbol>

  <symbol id="icon-facebook" width="27" height="26" viewBox="0 0 27 26" fill="none">
    <path fill-rule="evenodd" clip-rule="evenodd" d="M24.689 25.494H17.6489V16.703H22.0488V12.308H17.6489V9.67C17.6505 9.43719 17.744 9.21437 17.9087 9.04984C18.0734 8.8853 18.296 8.79231 18.5288 8.791H22.4888V4.39099H18.0889C16.7682 4.50233 15.5381 5.10693 14.6431 6.08443C13.748 7.06193 13.2536 8.34064 13.2588 9.666V12.304H9.73877V16.698H13.2588V25.49H2.70898C2.24262 25.4892 1.79568 25.3037 1.46582 24.974C1.13596 24.6443 0.950276 24.1974 0.949219 23.731V1.758C0.95054 1.29181 1.13599 0.845116 1.46582 0.515656C1.79566 0.186195 2.24279 0.000791421 2.70898 0H24.689C25.1536 0.00290161 25.5985 0.189296 25.9263 0.518585C26.2541 0.847875 26.4382 1.29337 26.439 1.758V23.735C26.4384 24.1998 26.2541 24.6455 25.9263 24.9751C25.5984 25.3046 25.1538 25.4911 24.689 25.494Z" fill="#4A68AD"/>
  </symbol>

  <symbol id="icon-instagram" width="26" height="26" viewBox="0 0 26 26" fill="none">
    <path fill-rule="evenodd" clip-rule="evenodd" d="M23.3789 0H2.98877C2.3132 0.00237184 1.66618 0.271792 1.18848 0.749496C0.710772 1.2272 0.441337 1.87442 0.438965 2.54999V22.947C0.441337 23.6226 0.710772 24.2698 1.18848 24.7475C1.66618 25.2252 2.3132 25.4946 2.98877 25.497H23.3789C24.055 25.4962 24.7031 25.2273 25.1812 24.7492C25.6592 24.2712 25.9284 23.623 25.9292 22.947V2.547C25.9279 1.87138 25.6587 1.22385 25.1807 0.746399C24.7026 0.268944 24.0545 0.000528187 23.3789 0ZM13.189 7.64799C14.1976 7.64799 15.1838 7.9471 16.0225 8.50749C16.8612 9.06789 17.5149 9.86441 17.9009 10.7963C18.2869 11.7282 18.3877 12.7536 18.1909 13.743C17.9941 14.7323 17.5087 15.641 16.7954 16.3542C16.0822 17.0675 15.1734 17.5532 14.1841 17.75C13.1948 17.9468 12.1692 17.8458 11.2373 17.4598C10.3054 17.0738 9.50913 16.4201 8.94873 15.5814C8.38834 14.7427 8.08887 13.7567 8.08887 12.748C8.09098 11.396 8.62901 10.0999 9.58496 9.14374C10.5409 8.1876 11.8369 7.64937 13.189 7.64699V7.64799ZM3.62891 22.948C3.5436 22.9539 3.45804 22.9415 3.37793 22.9116C3.29782 22.8817 3.22515 22.835 3.16455 22.7747C3.10395 22.7144 3.05664 22.6418 3.02637 22.5618C2.9961 22.4818 2.98329 22.3963 2.98877 22.311V11.472H5.66895C5.56152 11.888 5.51781 12.3179 5.53906 12.747C5.53906 14.7746 6.3446 16.7191 7.77832 18.1528C9.21204 19.5865 11.1565 20.392 13.1841 20.392C15.2117 20.392 17.1561 19.5865 18.5898 18.1528C20.0236 16.7191 20.8291 14.7746 20.8291 12.747C20.8487 12.3185 20.8082 11.8893 20.709 11.472H23.3789V22.307C23.3842 22.3914 23.372 22.476 23.3423 22.5553C23.3126 22.6345 23.266 22.7066 23.2065 22.7667C23.147 22.8269 23.076 22.8738 22.9971 22.9043C22.9182 22.9349 22.8335 22.9484 22.749 22.944H3.62891V22.948ZM23.3789 5.73999C23.3842 5.82443 23.372 5.90905 23.3423 5.98828C23.3126 6.06751 23.266 6.13957 23.2065 6.19972C23.147 6.25988 23.076 6.30677 22.9971 6.33733C22.9182 6.36788 22.8335 6.3814 22.749 6.377H20.1992C20.1139 6.38287 20.0279 6.37044 19.9478 6.34055C19.8676 6.31065 19.795 6.26399 19.7344 6.20367C19.6738 6.14335 19.6269 6.07078 19.5967 5.99081C19.5664 5.91085 19.5536 5.82532 19.5591 5.73999V3.18999C19.5538 3.10474 19.5668 3.01935 19.5972 2.9395C19.6275 2.85965 19.6743 2.7872 19.7349 2.72699C19.7955 2.66678 19.8682 2.6202 19.9482 2.59036C20.0283 2.56053 20.114 2.54814 20.1992 2.554H22.749C22.8334 2.54962 22.9178 2.5631 22.9966 2.5936C23.0754 2.62409 23.1471 2.6709 23.2065 2.73094C23.266 2.79099 23.3121 2.86292 23.3418 2.94203C23.3715 3.02114 23.3841 3.10563 23.3789 3.18999V5.73999Z" fill="#37373F"/>
  </symbol>
</svg>
