<svg xmlns="http://www.w3.org/2000/svg" xmlns:xlink="http://www.w3.org/1999/xlink"><defs>
<clipPath id="clip0">
<rect width="129" height="23" fill="white"/>
</clipPath>

<filter id="filter0_dd" x="0" y="0" width="82" height="82" filterUnits="userSpaceOnUse" color-interpolation-filters="sRGB">
<feFlood flood-opacity="0" result="BackgroundImageFix"/>
<feColorMatrix in="SourceAlpha" type="matrix" values="0 0 0 0 0 0 0 0 0 0 0 0 0 0 0 0 0 0 127 0"/>
<feOffset dy="4"/>
<feGaussianBlur stdDeviation="2"/>
<feColorMatrix type="matrix" values="0 0 0 0 1 0 0 0 0 1 0 0 0 0 1 0 0 0 0.25 0"/>
<feBlend mode="normal" in2="BackgroundImageFix" result="effect1_dropShadow"/>
<feColorMatrix in="SourceAlpha" type="matrix" values="0 0 0 0 0 0 0 0 0 0 0 0 0 0 0 0 0 0 127 0"/>
<feOffset dy="4"/>
<feGaussianBlur stdDeviation="7.5"/>
<feColorMatrix type="matrix" values="0 0 0 0 1 0 0 0 0 1 0 0 0 0 1 0 0 0 0.25 0"/>
<feBlend mode="normal" in2="effect1_dropShadow" result="effect2_dropShadow"/>
<feBlend mode="normal" in="SourceGraphic" in2="effect2_dropShadow" result="shape"/>
</filter>

<filter id="filter0_d" x="0" y="0" width="232" height="102.676" filterUnits="userSpaceOnUse" color-interpolation-filters="sRGB">
<feFlood flood-opacity="0" result="BackgroundImageFix"/>
<feColorMatrix in="SourceAlpha" type="matrix" values="0 0 0 0 0 0 0 0 0 0 0 0 0 0 0 0 0 0 127 0"/>
<feOffset dy="4"/>
<feGaussianBlur stdDeviation="2"/>
<feColorMatrix type="matrix" values="0 0 0 0 0 0 0 0 0 0 0 0 0 0 0 0 0 0 0.1 0"/>
<feBlend mode="normal" in2="BackgroundImageFix" result="effect1_dropShadow"/>
<feBlend mode="normal" in="SourceGraphic" in2="effect1_dropShadow" result="shape"/>
</filter>
</defs><symbol id="icon-arrow-down" viewBox="0 0 11 6">
<path fill-rule="evenodd" clip-rule="evenodd" d="M4.9557 5.78412L0.225863 1.25809C0.154844 1.19266 0.0980035 1.11241 0.0590805 1.02259C0.0201575 0.932782 0 0.835459 0 0.737015C0 0.63857 0.0201575 0.541237 0.0590805 0.451426C0.0980035 0.361615 0.154844 0.281358 0.225863 0.215932C0.376464 0.0768556 0.571367 0 0.773135 0C0.974903 0 1.16952 0.0768556 1.32012 0.215932L5.50014 4.22088L9.68581 0.215932C9.8353 0.0769149 10.0291 1.82993e-05 10.23 1.82993e-05C10.4309 1.82993e-05 10.6247 0.0769149 10.7741 0.215932C10.8452 0.281412 10.902 0.361721 10.9409 0.451582C10.9798 0.541442 11 0.638816 11 0.737307C11 0.835799 10.9798 0.933181 10.9409 1.02304C10.902 1.1129 10.8452 1.19321 10.7741 1.25869L6.04996 5.78412C5.8984 5.92351 5.70283 6.00034 5.50014 5.99998C5.29901 6.00132 5.10451 5.92427 4.9557 5.78412Z" fill="#C7C7C7"/>
</symbol><symbol id="icon-arrow-left" viewBox="0 0 11 19">
<path fill-rule="evenodd" clip-rule="evenodd" d="M0.361709 8.56006L7.90971 0.390137C8.01882 0.267464 8.15267 0.169283 8.30244 0.102051C8.45222 0.0348184 8.61453 -6.09025e-08 8.7787 -5.37261e-08C8.94288 -4.65498e-08 9.1052 0.0348184 9.25497 0.102051C9.40475 0.169283 9.5386 0.267464 9.64771 0.390137C9.87964 0.650272 10.0078 0.986931 10.0078 1.33545C10.0078 1.68397 9.87964 2.02014 9.6477 2.28027L2.9687 9.50049L9.6477 16.7305C9.87954 16.9887 10.0078 17.3234 10.0078 17.6704C10.0078 18.0174 9.87954 18.3521 9.6477 18.6104C9.5385 18.733 9.40457 18.8312 9.25471 18.8984C9.10485 18.9657 8.94247 19.0005 8.77821 19.0005C8.61396 19.0005 8.45156 18.9657 8.3017 18.8984C8.15184 18.8312 8.01791 18.733 7.90871 18.6104L0.361709 10.4502C0.129234 10.1884 0.00110679 9.85059 0.00170857 9.50049C-0.000526828 9.15308 0.127981 8.8171 0.361709 8.56006Z" fill="#C7C7C7"/>
</symbol><symbol id="icon-arrow-right-small" viewBox="0 0 6 11">
<path fill-rule="evenodd" clip-rule="evenodd" d="M5.78412 6.0443L1.25809 10.7741C1.19266 10.8452 1.11241 10.902 1.02259 10.9409C0.932782 10.9798 0.835459 11 0.737015 11C0.63857 11 0.541237 10.9798 0.451426 10.9409C0.361615 10.902 0.281358 10.8452 0.215932 10.7741C0.0768556 10.6235 -2.49752e-08 10.4286 -3.37948e-08 10.2269C-4.26144e-08 10.0251 0.0768556 9.83048 0.215932 9.67988L4.22088 5.49986L0.215932 1.31419C0.0769145 1.1647 1.78609e-05 0.970924 1.78522e-05 0.770026C1.78434e-05 0.569127 0.0769145 0.375348 0.215932 0.225863C0.281412 0.154831 0.36172 0.0980091 0.451581 0.0590811C0.541442 0.020153 0.638815 9.25751e-07 0.737307 9.21446e-07C0.835799 9.1714e-07 0.933181 0.020153 1.02304 0.059081C1.1129 0.0980091 1.19321 0.154831 1.25869 0.225863L5.78412 4.95004C5.92351 5.1016 6.00034 5.29717 5.99998 5.49986C6.00132 5.70099 5.92427 5.89549 5.78412 6.0443Z" fill="#C7C7C7"/>
</symbol><symbol id="icon-arrow-right" viewBox="0 0 11 19">
<path fill-rule="evenodd" clip-rule="evenodd" d="M9.6461 10.4404L2.0981 18.6104C1.98899 18.733 1.85515 18.8312 1.70537 18.8984C1.55559 18.9657 1.39329 19.0005 1.22911 19.0005C1.06494 19.0005 0.902616 18.9657 0.752838 18.8984C0.603061 18.8312 0.469217 18.733 0.360107 18.6104C0.128171 18.3502 -4.31401e-08 18.0136 -5.83743e-08 17.665C-7.36085e-08 17.3165 0.128171 16.9804 0.360107 16.7202L7.03911 9.5L0.360107 2.27002C0.128269 2.01181 2.97603e-05 1.67709 2.97452e-05 1.33008C2.973e-05 0.983063 0.128269 0.648346 0.360107 0.390137C0.469308 0.267441 0.603237 0.169291 0.753097 0.102051C0.902956 0.034811 1.06534 -4.65677e-08 1.2296 -5.37475e-08C1.39385 -6.09272e-08 1.55626 0.034811 1.70611 0.102051C1.85597 0.16929 1.9899 0.267441 2.09911 0.390137L9.6461 8.55029C9.87858 8.81208 10.0067 9.14989 10.0061 9.5C10.0083 9.84741 9.87983 10.1834 9.6461 10.4404Z" fill="#C7C7C7"/>
</symbol><symbol id="icon-calender" viewBox="0 0 35 35">
<path fill-rule="evenodd" clip-rule="evenodd" d="M25.5 9.68518H23.0601V8.56006C23.0601 8.41152 23.001 8.26907 22.896 8.16403C22.791 8.059 22.6485 8 22.5 8C22.3515 8 22.209 8.059 22.104 8.16403C21.999 8.26907 21.9399 8.41152 21.9399 8.56006V9.68518H18.5601V8.56006C18.5601 8.41152 18.501 8.26907 18.396 8.16403C18.291 8.059 18.1485 8 18 8C17.8515 8 17.709 8.059 17.604 8.16403C17.499 8.26907 17.4399 8.41152 17.4399 8.56006V9.68518H14.0601V8.56006C14.0601 8.41152 14.001 8.26907 13.896 8.16403C13.791 8.059 13.6485 8 13.5 8C13.3515 8 13.209 8.059 13.104 8.16403C12.999 8.26907 12.9399 8.41152 12.9399 8.56006V9.68518H10.5C10.1022 9.68518 9.72076 9.84324 9.43945 10.1246C9.15815 10.4059 9 10.7875 9 11.1854V24.4998C9 24.8977 9.15815 25.2793 9.43945 25.5606C9.72076 25.8419 10.1022 26 10.5 26H25.5C25.8978 26 26.2792 25.8419 26.5605 25.5606C26.8419 25.2793 27 24.8977 27 24.4998V11.1854C27 10.7875 26.8419 10.4059 26.5605 10.1246C26.2792 9.84324 25.8978 9.68518 25.5 9.68518ZM25.8701 24.4998C25.8709 24.5489 25.862 24.5976 25.8438 24.6431C25.8255 24.6887 25.7981 24.7301 25.7637 24.765C25.7292 24.8 25.6883 24.8276 25.6431 24.8465C25.5978 24.8654 25.5491 24.875 25.5 24.8749H10.5C10.3999 24.8754 10.3037 24.8362 10.2324 24.7659C10.1612 24.6956 10.1209 24.5999 10.1201 24.4998V11.1854C10.1209 11.0853 10.1612 10.9896 10.2324 10.9193C10.3037 10.849 10.3999 10.8098 10.5 10.8103H12.9399V11.9354C12.9399 12.084 12.999 12.2264 13.104 12.3315C13.209 12.4365 13.3515 12.4955 13.5 12.4955C13.6485 12.4955 13.791 12.4365 13.896 12.3315C14.001 12.2264 14.0601 12.084 14.0601 11.9354V10.8103H17.4399V11.9354C17.4399 12.084 17.499 12.2264 17.604 12.3315C17.709 12.4365 17.8515 12.4955 18 12.4955C18.1485 12.4955 18.291 12.4365 18.396 12.3315C18.501 12.2264 18.5601 12.084 18.5601 11.9354V10.8103H21.9399V11.9354C21.9399 12.084 21.999 12.2264 22.104 12.3315C22.209 12.4365 22.3515 12.4955 22.5 12.4955C22.6485 12.4955 22.791 12.4365 22.896 12.3315C23.001 12.2264 23.0601 12.084 23.0601 11.9354V10.8103H25.5C25.5491 10.8102 25.5978 10.8198 25.6431 10.8387C25.6883 10.8575 25.7292 10.8852 25.7637 10.9202C25.7981 10.9551 25.8255 10.9965 25.8438 11.0421C25.862 11.0876 25.8709 11.1363 25.8701 11.1854V24.4998ZM12.9399 14.7488H15.1899V16.4359H12.9399V14.7488ZM12.9399 17.5611H15.1899V19.2493H12.9399V17.5611ZM12.9399 20.3744H15.1899V22.0616H12.9399V20.3744ZM16.8701 20.3744H19.1201V22.0616H16.8701V20.3744ZM16.8701 17.5611H19.1201V19.2493H16.8701V17.5611ZM16.8701 14.7488H19.1201V16.4359H16.8701V14.7488ZM20.8101 20.3744H23.0601V22.0616H20.8101V20.3744ZM20.8101 17.5611H23.0601V19.2493H20.8101V17.5611ZM20.8101 14.7488H23.0601V16.4359H20.8101V14.7488Z" fill="#83888A"/>
<rect x="0.25" y="0.25" width="34.5" height="34.5" rx="2.75" stroke="#C4C4C4" stroke-width="0.5"/>
</symbol><symbol id="icon-cup" viewBox="0 0 32 36">
<path d="M28.9109 14.3018H23.7792V13.5933C23.7792 13.1676 23.4341 12.8225 23.0084 12.8225H8.99463C8.56893 12.8225 8.22384 13.1676 8.22384 13.5933V14.3018H3.09208C2.66638 14.3018 2.32129 14.6469 2.32129 15.0726V18.5631C2.32129 19.5174 2.69296 20.4146 3.3678 21.0894C4.04264 21.7642 4.93984 22.1359 5.89415 22.1359H8.42124C9.15921 25.3442 11.8873 27.8006 15.2308 28.1311V31.6008H13.1665C11.9742 31.6008 11.0041 32.5709 11.0041 33.7632V35.0306C11.0041 35.4562 11.3492 35.8013 11.7749 35.8013H20.2283C20.6539 35.8013 20.999 35.4562 20.999 35.0306V33.7632C20.999 32.5709 20.0289 31.6008 18.8366 31.6008H16.7724V28.131C20.1159 27.8006 22.8439 25.3441 23.5819 22.1359H26.1089C28.0791 22.1359 29.6819 20.5331 29.6819 18.563V15.0726C29.6817 14.6469 29.3366 14.3018 28.9109 14.3018ZM19.4574 33.7632V34.2598H12.5456V33.7632C12.5456 33.4209 12.8241 33.1424 13.1664 33.1424H18.8366C19.1789 33.1423 19.4574 33.4208 19.4574 33.7632ZM8.22509 20.5943H5.89408C5.35152 20.5943 4.8414 20.3831 4.45784 19.9994C4.07406 19.6157 3.86287 19.1056 3.86287 18.5631V15.8434H8.22516V20.5943H8.22509ZM22.2376 20.3915C22.2376 23.8301 19.4401 26.6276 16.0015 26.6276C12.5629 26.6276 9.76542 23.8301 9.76542 20.3915V14.3641H22.2376V20.3915ZM23.7778 15.8433H28.1402V18.563C28.1402 19.683 27.229 20.5943 26.1089 20.5943H23.7778V15.8433Z" fill="#37373F"/>
<path d="M12.7289 7.09889L12.1506 10.1508C12.095 10.4438 12.2135 10.7426 12.4548 10.9179C12.6962 11.0932 13.0168 11.1136 13.2784 10.9702L16.0022 9.47718L18.7262 10.9702C18.842 11.0337 18.9695 11.0651 19.0966 11.0651C19.2563 11.0651 19.4153 11.0155 19.5498 10.9179C19.791 10.7426 19.9095 10.4438 19.854 10.1508L19.2759 7.09889L21.5374 4.96975C21.7545 4.76531 21.8342 4.45398 21.7421 4.17033C21.6499 3.88668 21.4024 3.68165 21.1066 3.64392L18.0252 3.25082L16.6992 0.441772C16.5719 0.172069 16.3005 0 16.0022 0C15.704 0 15.4325 0.172069 15.3052 0.441772L13.9792 3.25082L10.8978 3.64392C10.602 3.68165 10.3545 3.88668 10.2623 4.17033C10.1702 4.45391 10.2499 4.76538 10.4671 4.96975L12.7289 7.09889ZM14.5934 4.72655C14.8546 4.69322 15.0806 4.52901 15.1929 4.29094L16.0022 2.57642L16.8115 4.29094C16.9239 4.52893 17.1499 4.69315 17.411 4.72655L19.2919 4.96652L17.9114 6.26607C17.7198 6.44651 17.6335 6.71217 17.6825 6.97079L18.0354 8.83375L16.3727 7.92238C16.2573 7.85911 16.1297 7.82747 16.0022 7.82747C15.8747 7.82747 15.7471 7.85911 15.6317 7.92238L13.9692 8.83368L14.3222 6.97079C14.3712 6.71225 14.2848 6.44643 14.0932 6.26607L12.7127 4.96652L14.5934 4.72655Z" fill="#FC9B09"/>
<path d="M31.9623 6.92039C31.8701 6.63674 31.6226 6.43171 31.3268 6.39397L29.1049 6.11047L28.1487 4.08484C28.0214 3.81514 27.7499 3.64307 27.4517 3.64307C27.1535 3.64307 26.882 3.81514 26.7547 4.08484L25.7985 6.11047L23.5766 6.39397C23.2807 6.43171 23.0333 6.63674 22.9411 6.92039C22.8489 7.20396 22.9286 7.51536 23.1458 7.7198L24.7768 9.25507L24.3597 11.4558C24.3041 11.7488 24.4226 12.0476 24.6639 12.2228C24.7984 12.3205 24.9574 12.3701 25.1171 12.3701C25.2441 12.3701 25.3717 12.3387 25.4875 12.2752L27.4517 11.1986L29.416 12.2752C29.6775 12.4186 29.9982 12.3982 30.2395 12.2228C30.4808 12.0475 30.5992 11.7488 30.5438 11.4558L30.1269 9.25507L31.7577 7.7198C31.9747 7.51536 32.0544 7.20404 31.9623 6.92039ZM28.7625 8.42225C28.5709 8.60261 28.4846 8.86835 28.5335 9.12697L28.7252 10.1387L27.8221 9.64377C27.7067 9.58049 27.5791 9.54885 27.4516 9.54885C27.3241 9.54885 27.1965 9.58049 27.0811 9.64377L26.1783 10.1386L26.37 9.12697C26.419 8.86843 26.3326 8.60261 26.141 8.42218L25.3913 7.7165L26.4126 7.5862C26.6737 7.55295 26.8997 7.38873 27.0121 7.15067L27.4516 6.21956L27.8911 7.15067C28.0034 7.38866 28.2294 7.55287 28.4905 7.5862L29.512 7.7165L28.7625 8.42225Z" fill="#FC9B09"/>
<path d="M4.54831 11.1986L6.51258 12.2752C6.77413 12.4187 7.09485 12.3983 7.33614 12.2229C7.57736 12.0476 7.69584 11.7489 7.64042 11.4559L7.22346 9.25514L8.8543 7.71988C9.07145 7.51544 9.15117 7.20411 9.05904 6.92046C8.96684 6.63681 8.71938 6.43178 8.42354 6.39405L6.20154 6.11047L5.24533 4.08484C5.11804 3.81514 4.8465 3.64307 4.54831 3.64307C4.25013 3.64307 3.97859 3.81514 3.8513 4.08484L2.89516 6.11047L0.67323 6.39397C0.377394 6.43171 0.129934 6.63674 0.0377332 6.92039C-0.0543944 7.20396 0.0253273 7.51536 0.242469 7.7198L1.87346 9.25507L1.45635 11.4558C1.40078 11.7488 1.51926 12.0476 1.76063 12.2228C1.89504 12.3205 2.05404 12.3701 2.21378 12.3701C2.34085 12.3701 2.46836 12.3387 2.5842 12.2752L4.54831 11.1986ZM3.50936 7.5862C3.77048 7.55295 3.9965 7.38873 4.10882 7.15067L4.54831 6.21956L4.98781 7.15067C5.10012 7.38866 5.32615 7.55287 5.58726 7.5862L6.60874 7.7165L5.85909 8.42225C5.6675 8.60261 5.58117 8.86835 5.63013 9.12697L5.8218 10.1387L4.91873 9.64377C4.80333 9.58049 4.67575 9.54885 4.54824 9.54885C4.42073 9.54885 4.29315 9.58049 4.17775 9.64377L3.2749 10.1386L3.46657 9.12697C3.5156 8.86843 3.4292 8.60261 3.23761 8.42218L2.48789 7.7165L3.50936 7.5862Z" fill="#FC9B09"/>
</symbol><symbol id="icon-facebook" viewBox="0 0 27 26">
<path fill-rule="evenodd" clip-rule="evenodd" d="M24.689 25.494H17.6489V16.703H22.0488V12.308H17.6489V9.67C17.6505 9.43719 17.744 9.21437 17.9087 9.04984C18.0734 8.8853 18.296 8.79231 18.5288 8.791H22.4888V4.39099H18.0889C16.7682 4.50233 15.5381 5.10693 14.6431 6.08443C13.748 7.06193 13.2536 8.34064 13.2588 9.666V12.304H9.73877V16.698H13.2588V25.49H2.70898C2.24262 25.4892 1.79568 25.3037 1.46582 24.974C1.13596 24.6443 0.950276 24.1974 0.949219 23.731V1.758C0.95054 1.29181 1.13599 0.845116 1.46582 0.515656C1.79566 0.186195 2.24279 0.000791421 2.70898 0H24.689C25.1536 0.00290161 25.5985 0.189296 25.9263 0.518585C26.2541 0.847875 26.4382 1.29337 26.439 1.758V23.735C26.4384 24.1998 26.2541 24.6455 25.9263 24.9751C25.5984 25.3046 25.1538 25.4911 24.689 25.494Z" fill="#4A68AD"/>
</symbol><symbol id="icon-heart" viewBox="0 0 31 27">
<path d="M3.52914 16.9207L3.52789 16.919C1.89742 14.7951 0.746534 12.2822 0.531249 9.67392C0.149029 4.93272 3.26968 0.5 8.2286 0.5C11.1675 0.5 13.7282 2.08465 15.091 4.46163L15.5303 5.22778L15.9612 4.45692C17.272 2.11224 19.8534 0.524782 22.7959 0.524782C27.7768 0.524782 30.8506 4.95387 30.4683 9.69822C30.2535 12.3031 29.0801 14.7918 27.4701 16.921C25.5662 19.4143 23.1651 21.387 20.5837 23.2087L20.5782 23.2125L20.5522 23.2306L20.4522 23.2999L20.0845 23.5549L18.8722 24.396C17.926 25.0526 16.8016 25.8333 16.0891 26.3291C15.7662 26.5532 15.3164 26.5618 14.9555 26.3257C14.242 25.8291 13.1138 25.0502 12.1636 24.3951C11.6872 24.0667 11.2553 23.7692 10.9425 23.5539L10.5719 23.2989L10.4711 23.2295L10.4449 23.2115L10.4384 23.207C7.85549 21.384 5.40655 19.3872 3.52914 16.9207Z" fill="#FC9B09" stroke="#FC9B09"/>
</symbol><symbol id="icon-instagram" viewBox="0 0 26 26">
<path fill-rule="evenodd" clip-rule="evenodd" d="M23.3789 0H2.98877C2.3132 0.00237184 1.66618 0.271792 1.18848 0.749496C0.710772 1.2272 0.441337 1.87442 0.438965 2.54999V22.947C0.441337 23.6226 0.710772 24.2698 1.18848 24.7475C1.66618 25.2252 2.3132 25.4946 2.98877 25.497H23.3789C24.055 25.4962 24.7031 25.2273 25.1812 24.7492C25.6592 24.2712 25.9284 23.623 25.9292 22.947V2.547C25.9279 1.87138 25.6587 1.22385 25.1807 0.746399C24.7026 0.268944 24.0545 0.000528187 23.3789 0ZM13.189 7.64799C14.1976 7.64799 15.1838 7.9471 16.0225 8.50749C16.8612 9.06789 17.5149 9.86441 17.9009 10.7963C18.2869 11.7282 18.3877 12.7536 18.1909 13.743C17.9941 14.7323 17.5087 15.641 16.7954 16.3542C16.0822 17.0675 15.1734 17.5532 14.1841 17.75C13.1948 17.9468 12.1692 17.8458 11.2373 17.4598C10.3054 17.0738 9.50913 16.4201 8.94873 15.5814C8.38834 14.7427 8.08887 13.7567 8.08887 12.748C8.09098 11.396 8.62901 10.0999 9.58496 9.14374C10.5409 8.1876 11.8369 7.64937 13.189 7.64699V7.64799ZM3.62891 22.948C3.5436 22.9539 3.45804 22.9415 3.37793 22.9116C3.29782 22.8817 3.22515 22.835 3.16455 22.7747C3.10395 22.7144 3.05664 22.6418 3.02637 22.5618C2.9961 22.4818 2.98329 22.3963 2.98877 22.311V11.472H5.66895C5.56152 11.888 5.51781 12.3179 5.53906 12.747C5.53906 14.7746 6.3446 16.7191 7.77832 18.1528C9.21204 19.5865 11.1565 20.392 13.1841 20.392C15.2117 20.392 17.1561 19.5865 18.5898 18.1528C20.0236 16.7191 20.8291 14.7746 20.8291 12.747C20.8487 12.3185 20.8082 11.8893 20.709 11.472H23.3789V22.307C23.3842 22.3914 23.372 22.476 23.3423 22.5553C23.3126 22.6345 23.266 22.7066 23.2065 22.7667C23.147 22.8269 23.076 22.8738 22.9971 22.9043C22.9182 22.9349 22.8335 22.9484 22.749 22.944H3.62891V22.948ZM23.3789 5.73999C23.3842 5.82443 23.372 5.90905 23.3423 5.98828C23.3126 6.06751 23.266 6.13957 23.2065 6.19972C23.147 6.25988 23.076 6.30677 22.9971 6.33733C22.9182 6.36788 22.8335 6.3814 22.749 6.377H20.1992C20.1139 6.38287 20.0279 6.37044 19.9478 6.34055C19.8676 6.31065 19.795 6.26399 19.7344 6.20367C19.6738 6.14335 19.6269 6.07078 19.5967 5.99081C19.5664 5.91085 19.5536 5.82532 19.5591 5.73999V3.18999C19.5538 3.10474 19.5668 3.01935 19.5972 2.9395C19.6275 2.85965 19.6743 2.7872 19.7349 2.72699C19.7955 2.66678 19.8682 2.6202 19.9482 2.59036C20.0283 2.56053 20.114 2.54814 20.1992 2.554H22.749C22.8334 2.54962 22.9178 2.5631 22.9966 2.5936C23.0754 2.62409 23.1471 2.6709 23.2065 2.73094C23.266 2.79099 23.3121 2.86292 23.3418 2.94203C23.3715 3.02114 23.3841 3.10563 23.3789 3.18999V5.73999Z" fill="#37373F"/>
</symbol><symbol id="icon-logo" viewBox="0 0 129 23">
<g clip-path="url(#clip0)">
<path d="M0.496094 0.1521V23.0001H3.53609V12.5361H15.5681V23.0001H18.6081V0.1521H15.5681V9.9761H3.53609V0.1521H0.496094ZM23.5899 0.1521V23.0001H39.4619V20.4401H26.6299V12.5361H38.5019V9.9761H26.6299V2.7121H39.3659V0.1521H23.5899ZM43.1524 0.1521V23.0001H58.2883V20.4401H46.1924V0.1521H43.1524ZM66.8111 13.6561L75.5471 0.1521H72.0911L65.4031 11.0321L58.5551 0.1521H54.9391L63.7711 13.6561V23.0001H66.8111V13.6561ZM78.1211 0.1521V23.0001H81.1611V12.5361H91.6571V9.9761H81.1611V2.7121H93.1291V0.1521H78.1211ZM96.4961 0.1521V23.0001H111.632V20.4401H99.5361V0.1521H96.4961ZM120.155 13.6561L128.891 0.1521H125.435L118.747 11.0321L111.899 0.1521H108.283L117.115 13.6561V23.0001H120.155V13.6561Z" fill="black"/>
</g>

</symbol><symbol id="icon-money" viewBox="0 0 31 20">
<path d="M24.8516 6.27749C24.8516 4.23792 23.1996 2.58594 21.1601 2.58594C19.1205 2.58594 17.4685 4.23792 17.4685 6.27749C17.4685 8.31705 19.1205 9.96904 21.1601 9.96904C23.1996 9.96904 24.8516 8.31705 24.8516 6.27749ZM20.9567 8.79994C20.8551 8.79994 20.8042 8.74276 20.8042 8.6411C20.8042 8.5585 20.8042 8.48225 20.8042 8.39965C20.8042 8.22175 20.7979 8.21539 20.6263 8.18998C20.4103 8.15821 20.2006 8.10738 19.9973 8.01207C19.8448 7.93583 19.8258 7.8977 19.8702 7.73251C19.902 7.61178 19.9338 7.49106 19.9719 7.37034C20.0164 7.23056 20.0545 7.21149 20.1816 7.28139C20.3976 7.39575 20.6327 7.45929 20.8741 7.49106C21.033 7.51012 21.1855 7.49742 21.3316 7.43388C21.6048 7.31316 21.6429 7.00182 21.4142 6.81121C21.338 6.74767 21.249 6.69684 21.1537 6.65871C20.9186 6.55705 20.6645 6.47445 20.4421 6.34103C20.0799 6.125 19.8448 5.82002 19.8702 5.3816C19.902 4.87965 20.1816 4.56832 20.6454 4.39677C20.836 4.32688 20.836 4.33323 20.836 4.12991C20.836 4.06002 20.836 3.99648 20.836 3.92659C20.8424 3.7741 20.8678 3.74868 21.0139 3.74868C21.0584 3.74868 21.1092 3.74868 21.1537 3.74868C21.4714 3.74868 21.4714 3.74868 21.4714 4.06637C21.4714 4.28875 21.4714 4.28875 21.6938 4.32687C21.8653 4.35229 22.0305 4.40312 22.1894 4.47301C22.2783 4.51113 22.3101 4.57467 22.2847 4.66363C22.2466 4.80341 22.2084 4.93684 22.164 5.07662C22.1195 5.2037 22.0814 5.22276 21.9606 5.16557C21.7128 5.04485 21.4523 4.99402 21.1791 5.01308C21.1092 5.01944 21.0393 5.02579 20.9694 5.05756C20.7344 5.15922 20.6962 5.41973 20.8932 5.58492C20.9949 5.66752 21.1092 5.72471 21.23 5.77554C21.4396 5.86449 21.6493 5.94709 21.8463 6.0551C22.4816 6.40456 22.6532 7.19879 22.2021 7.74521C22.0432 7.94218 21.8336 8.07561 21.5858 8.13915C21.4777 8.17092 21.4333 8.22175 21.4333 8.33611C21.4396 8.44413 21.4333 8.55214 21.4333 8.66016C21.4333 8.75546 21.3824 8.81265 21.2871 8.81265C21.1918 8.8063 21.0711 8.8063 20.9567 8.79994Z" fill="#FC9B09"/>
<path d="M15.7965 7.48488C16.3615 7.48488 16.8195 7.02689 16.8195 6.46192C16.8195 5.89696 16.3615 5.43896 15.7965 5.43896C15.2316 5.43896 14.7736 5.89696 14.7736 6.46192C14.7736 7.02689 15.2316 7.48488 15.7965 7.48488Z" fill="#37373F"/>
<path d="M26.542 7.48488C27.107 7.48488 27.565 7.02689 27.565 6.46192C27.565 5.89696 27.107 5.43896 26.542 5.43896C25.977 5.43896 25.519 5.89696 25.519 6.46192C25.519 7.02689 25.977 7.48488 26.542 7.48488Z" fill="#37373F"/>
<path d="M29.3231 0.25415H13.2416C12.314 0.25415 11.5579 1.01025 11.5579 1.9379V7.55465C11.8057 7.54195 12.0535 7.53559 12.3076 7.53559C12.5427 7.53559 12.7714 7.54195 13.0002 7.55465V3.76144C13.1336 3.79321 13.2734 3.81227 13.4195 3.81227C14.3599 3.81227 15.1287 3.04982 15.1287 2.1031C15.1287 1.95697 15.1096 1.81718 15.0779 1.68375H27.6012C27.5821 1.78541 27.5694 1.89343 27.5694 1.99509C27.5694 2.93545 28.3319 3.70426 29.2786 3.70426C29.3802 3.70426 29.4819 3.69155 29.5772 3.67884V8.85718C29.4819 8.83812 29.3802 8.83177 29.2786 8.83177C28.3382 8.83177 27.5694 9.59422 27.5694 10.5409C27.5694 10.6489 27.5821 10.7506 27.6012 10.8523H18.6233C18.6233 10.8904 18.6233 10.9285 18.6233 10.9666C18.6233 10.9857 18.6233 10.9984 18.6233 11.0175V12.2946H29.3167C30.2444 12.2946 31.0005 11.5385 31.0005 10.6108V1.9379C31.0068 1.01025 30.2507 0.25415 29.3231 0.25415Z" fill="#37373F"/>
<path d="M1.71552 8.48231C2.64318 8.83177 3.86946 9.02238 5.16563 9.02238C5.85184 9.02238 6.51899 8.9652 7.12895 8.86354C7.4657 8.60939 7.89776 8.36794 8.45054 8.16462C9.00332 7.9613 9.64505 7.80246 10.3313 7.7008V6.7795C10.3313 6.76679 10.3313 6.75408 10.3313 6.74137C10.3313 6.73502 10.3313 6.72231 10.3313 6.71596V4.55567C10.3313 4.54296 10.3313 4.53025 10.3313 4.51755C10.3313 4.51119 10.3313 4.49848 10.3313 4.49213V2.33184C10.3313 2.31913 10.3313 2.30643 10.3313 2.29372C10.3313 1.79177 10.0326 1.08014 8.61574 0.546426C7.68809 0.190614 6.46181 0 5.16563 0C3.86946 0 2.64318 0.190614 1.71552 0.540072C0.298628 1.06744 0 1.77906 0 2.28736V4.48578C0 4.49213 0 4.50484 0 4.51119V6.7096C0 6.71596 0 6.72867 0 6.73502V6.76043V8.93343V8.95885C0 8.9652 0 8.97791 0 8.98426V11.1827C0 11.189 0 11.2017 0 11.2081V13.4065C0 13.9084 0.298628 14.6201 1.71552 15.1538C2.64318 15.5033 3.86946 15.6939 5.16563 15.6939C5.4452 15.6939 5.71841 15.6875 5.99163 15.6684V15.4524V15.427C5.99163 15.4207 5.99163 15.4207 5.99163 15.4143C5.99163 15.4079 5.99163 15.4016 5.99163 15.4016V14.5311C5.72477 14.5502 5.4452 14.5629 5.16563 14.5629C4.00289 14.5629 2.91639 14.3977 2.11581 14.0991C1.32159 13.8004 1.13733 13.5018 1.13733 13.4256V12.7076C1.30253 12.7965 1.49949 12.8791 1.71552 12.9617C2.64318 13.3112 3.86946 13.5018 5.16563 13.5018C5.4452 13.5018 5.71841 13.4955 5.99163 13.4764V13.2032C5.99163 13.1968 5.99163 13.1968 5.99163 13.1905C5.99163 13.1841 5.99163 13.1778 5.99163 13.1778V12.3073C5.72477 12.3264 5.4452 12.3391 5.16563 12.3391C4.00289 12.3391 2.91639 12.1739 2.11581 11.8752C1.32159 11.5766 1.13733 11.278 1.13733 11.2017V10.4901C1.30253 10.5791 1.49949 10.6617 1.71552 10.7443C2.64318 11.0937 3.86946 11.2843 5.16563 11.2843C5.4452 11.2843 5.71841 11.278 5.99163 11.2589V10.9857C5.99163 10.7316 6.02975 10.4012 6.18224 10.0453C5.85184 10.0771 5.51509 10.0898 5.16563 10.0898C4.00289 10.0898 2.91639 9.92462 2.11581 9.62599C1.32159 9.32736 1.13733 9.02874 1.13733 8.95249V8.24087C1.30888 8.31076 1.49949 8.39971 1.71552 8.48231ZM2.11581 1.60751C2.92274 1.30888 4.00924 1.14368 5.16563 1.14368C6.32838 1.14368 7.41487 1.30888 8.21545 1.60751C8.98426 1.89343 9.17487 2.17935 9.18758 2.27466V2.29372C9.17487 2.38903 8.98426 2.67495 8.21545 2.96087C7.40852 3.25949 6.32202 3.42469 5.16563 3.42469C4.00289 3.42469 2.91639 3.25949 2.11581 2.96087C1.32159 2.66224 1.13733 2.36361 1.13733 2.28736C1.13733 2.21112 1.32159 1.89978 2.11581 1.60751ZM1.13733 3.7678C1.30253 3.85675 1.49949 3.93935 1.71552 4.02195C2.64318 4.37141 3.86946 4.56202 5.16563 4.56202C6.46181 4.56202 7.68809 4.37141 8.61574 4.02195C8.83177 3.93935 9.02238 3.85675 9.19394 3.7678V4.47942V4.48578C9.18123 4.58108 8.99061 4.867 8.22181 5.15292C7.41487 5.45155 6.32838 5.61675 5.17199 5.61675C4.00924 5.61675 2.92274 5.45155 2.12217 5.15292C1.32794 4.8543 1.14368 4.55567 1.14368 4.47942V3.7678H1.13733ZM1.13733 5.99798C1.30253 6.08693 1.49949 6.16953 1.71552 6.25213C2.64318 6.60159 3.86946 6.7922 5.16563 6.7922C6.46181 6.7922 7.68809 6.60159 8.61574 6.25213C8.83177 6.16953 9.02238 6.08693 9.19394 5.99798V6.7096V6.71596C9.18123 6.81126 8.99061 7.09719 8.22181 7.38311C7.41487 7.68173 6.32838 7.84693 5.17199 7.84693C4.00924 7.84693 2.92274 7.68173 2.12217 7.38311C1.32794 7.08448 1.14368 6.78585 1.14368 6.7096V5.99798H1.13733Z" fill="#FC9B09"/>
<path d="M15.7559 9.22562C14.8282 8.87616 13.6019 8.68555 12.3058 8.68555C11.0096 8.68555 9.78331 8.87616 8.85566 9.22562C7.43876 9.75298 7.14014 10.4646 7.14014 10.9729V13.1713C7.14014 13.1777 7.14014 13.1904 7.14014 13.1967V15.3952C7.14014 15.4015 7.14014 15.4142 7.14014 15.4206V15.446V17.619V17.6444C7.14014 18.1463 7.43876 18.858 8.85566 19.3917C9.78331 19.7411 11.0096 19.9318 12.3058 19.9318C13.6019 19.9318 14.8282 19.7411 15.7559 19.3917C17.1728 18.8643 17.4714 18.1527 17.4714 17.6444V17.619V15.4587C17.4714 15.446 17.4714 15.4333 17.4714 15.4206C17.4714 15.4142 17.4714 15.4015 17.4714 15.3952V13.2349C17.4714 13.2222 17.4714 13.2094 17.4714 13.1967C17.4714 13.1904 17.4714 13.1777 17.4714 13.1713V11.011C17.4714 10.9983 17.4714 10.9856 17.4714 10.9729C17.4778 10.471 17.1791 9.75934 15.7559 9.22562ZM9.25595 10.2994C10.0629 10.0008 11.1494 9.83558 12.3058 9.83558C13.4685 9.83558 14.555 10.0008 15.3556 10.2994C16.1244 10.5853 16.3214 10.8713 16.3277 10.9666V10.9856C16.315 11.0809 16.1244 11.3668 15.3556 11.6528C14.5487 11.9514 13.4622 12.1166 12.3058 12.1166C11.143 12.1166 10.0565 11.9514 9.25595 11.6528C8.46173 11.3541 8.27747 11.0555 8.27747 10.9793C8.27747 10.903 8.45537 10.5917 9.25595 10.2994ZM15.3619 18.3052C14.555 18.6038 13.4685 18.769 12.3121 18.769C11.1494 18.769 10.0629 18.6038 9.2623 18.3052C8.46808 18.0066 8.28382 17.7079 8.28382 17.6317V16.9201C8.44902 17.009 8.64598 17.0916 8.86201 17.1742C9.78967 17.5237 11.0159 17.7143 12.3121 17.7143C13.6083 17.7143 14.8346 17.5237 15.7622 17.1742C15.9783 17.0916 16.1689 17.009 16.3404 16.9201V17.6317C16.3341 17.7079 16.1562 18.0066 15.3619 18.3052ZM16.3341 15.4015V15.4079C16.3214 15.5032 16.1308 15.7891 15.3619 16.075C14.555 16.3736 13.4685 16.5388 12.3121 16.5388C11.1494 16.5388 10.0629 16.3736 9.2623 16.075C8.46808 15.7764 8.28382 15.4778 8.28382 15.4015V14.6899C8.44902 14.7788 8.64598 14.8614 8.86201 14.944C9.78967 15.2935 11.0159 15.4841 12.3121 15.4841C13.6083 15.4841 14.8346 15.2935 15.7622 14.944C15.9783 14.8614 16.1689 14.7788 16.3404 14.6899L16.3341 15.4015ZM16.3341 13.1713V13.1777C16.3214 13.273 16.1308 13.5589 15.3619 13.8448C14.555 14.1435 13.4685 14.3087 12.3121 14.3087C11.1494 14.3087 10.0629 14.1435 9.2623 13.8448C8.46808 13.5462 8.28382 13.2476 8.28382 13.1713V12.4597C8.44902 12.5487 8.64598 12.6313 8.86201 12.7139C9.78967 13.0633 11.0159 13.2539 12.3121 13.2539C13.6083 13.2539 14.8346 13.0633 15.7622 12.7139C15.9783 12.6313 16.1689 12.5487 16.3404 12.4597L16.3341 13.1713Z" fill="#37373F"/>
</symbol><symbol id="icon-percent" viewBox="0 0 82 82">
<path d="M32.035 38.765C30.1917 38.765 28.6867 38.1583 27.52 36.945C26.3533 35.7317 25.77 34.075 25.77 31.975C25.77 30.5983 26.0383 29.3967 26.575 28.37C27.1117 27.3433 27.8467 26.5617 28.78 26.025C29.7367 25.465 30.8217 25.185 32.035 25.185C33.9017 25.185 35.4183 25.8033 36.585 27.04C37.7517 28.2533 38.335 29.8983 38.335 31.975C38.335 34.075 37.7517 35.7317 36.585 36.945C35.4183 38.1583 33.9017 38.765 32.035 38.765ZM46.525 25.5H51.565L34.835 50H29.795L46.525 25.5ZM32.035 35.44C32.665 35.44 33.1667 35.16 33.54 34.6C33.9133 34.04 34.1 33.165 34.1 31.975C34.1 30.785 33.9133 29.91 33.54 29.35C33.1667 28.79 32.665 28.51 32.035 28.51C31.4283 28.51 30.9267 28.8017 30.53 29.385C30.1567 29.945 29.97 30.8083 29.97 31.975C29.97 33.1417 30.1567 34.0167 30.53 34.6C30.9267 35.16 31.4283 35.44 32.035 35.44ZM49.325 50.315C47.4583 50.315 45.9417 49.7083 44.775 48.495C43.6317 47.2817 43.06 45.625 43.06 43.525C43.06 41.4483 43.6433 39.8033 44.81 38.59C45.9767 37.3533 47.4817 36.735 49.325 36.735C51.1917 36.735 52.7083 37.3533 53.875 38.59C55.0417 39.8033 55.625 41.4483 55.625 43.525C55.625 45.625 55.0417 47.2817 53.875 48.495C52.7083 49.7083 51.1917 50.315 49.325 50.315ZM49.325 46.99C49.955 46.99 50.4567 46.71 50.83 46.15C51.2033 45.59 51.39 44.715 51.39 43.525C51.39 42.335 51.2033 41.46 50.83 40.9C50.4567 40.34 49.955 40.06 49.325 40.06C48.695 40.06 48.1933 40.34 47.82 40.9C47.4467 41.46 47.26 42.335 47.26 43.525C47.26 44.715 47.4467 45.59 47.82 46.15C48.1933 46.71 48.695 46.99 49.325 46.99Z" fill="white"/>
<g filter="url(#filter0_dd)">
<circle cx="41" cy="37" r="25.5" stroke="white"/>
</g>

</symbol><symbol id="icon-price-bg" viewBox="0 0 232 103">
<g filter="url(#filter0_d)">
<path d="M228 4.99999C228 2.23857 225.761 -1.957e-07 223 -4.37111e-07L9.00002 -1.91456e-05C6.23859 -1.9387e-05 4.00002 2.23856 4.00001 4.99998L4.00001 80.9826C4.00001 83.744 6.23858 85.9826 9.00001 85.9826L123.617 85.9826C124.709 85.9826 125.77 86.3398 126.64 86.9996L135.415 93.6593C137.231 95.0373 139.75 95.0126 141.538 93.5993L149.814 87.0596C150.697 86.362 151.789 85.9826 152.914 85.9826L223 85.9826C225.761 85.9826 228 83.744 228 80.9826L228 4.99999Z" fill="#FC9B09"/>
</g>

</symbol><symbol id="icon-star" viewBox="0 0 18 17">
<path d="M17.2168 5.79584L12.2598 5.32991C11.9473 5.30167 11.6774 5.10401 11.5496 4.80751L9.77417 0.529461C9.4901 -0.176487 8.48164 -0.176487 8.19757 0.529461L6.43632 4.80751C6.3227 5.10401 6.03862 5.30167 5.72615 5.32991L0.769095 5.79584C0.0305089 5.86643 -0.267766 6.78417 0.286173 7.27833L4.02172 10.5398C4.26318 10.7516 4.3626 11.0622 4.29158 11.3728L3.1695 15.9474C2.99906 16.6674 3.78025 17.2604 4.43362 16.8792L8.56686 14.4649C8.83673 14.3096 9.16341 14.3096 9.43328 14.4649L13.5665 16.8792C14.2199 17.2604 15.0011 16.6816 14.8306 15.9474L13.7228 11.3728C13.6517 11.0622 13.7512 10.7516 13.9926 10.5398L17.7282 7.27833C18.2679 6.78417 17.9554 5.86643 17.2168 5.79584Z" fill="#FC9B09"/>
</symbol><symbol id="icon-tick" viewBox="0 0 17 15">
<path d="M1 6.5L6.6 12.5L16 1" stroke="#6AAD4A" stroke-width="2.5"/>
</symbol><symbol id="icon-toggle-active" viewBox="0 0 10 10">
<circle cx="5" cy="5" r="5" fill="#FC9B09"/>
</symbol><symbol id="icon-toggle" viewBox="0 0 10 10">
<circle cx="5" cy="5" r="4.75" stroke="#B3B3B3" stroke-width="0.5"/>
</symbol><symbol id="icon-vk" viewBox="0 0 26 16">
<path fill-rule="evenodd" clip-rule="evenodd" d="M25.0593 1.34671C25.1479 1.3744 25.229 1.42146 25.2971 1.4845C25.3652 1.54754 25.4189 1.62495 25.4534 1.71114C25.4878 1.79732 25.5027 1.89011 25.4968 1.98275C25.4909 2.07538 25.4642 2.16556 25.4192 2.24671C25.2992 2.47971 25.1691 2.7067 25.0491 2.9337C25.0476 3.01323 25.0268 3.0912 24.9885 3.16089C24.9502 3.23058 24.8957 3.2899 24.8293 3.33371C23.725 5.34087 22.4432 7.24513 20.9992 9.0237C20.9944 9.02522 20.9901 9.02796 20.9866 9.03163C20.9831 9.03531 20.9805 9.03981 20.9792 9.04471C22.6492 10.2277 26.6392 13.2447 24.6892 14.9447C23.6692 15.8377 20.7091 15.6877 19.5691 15.1817C18.9084 14.8425 18.2934 14.4208 17.739 13.9267C16.759 13.1367 16.4891 13.1827 15.6091 14.0267C14.4791 15.1117 13.8494 15.7987 12.1794 15.6017C10.1849 15.2539 8.32981 14.3479 6.82933 12.9887C3.4438 10.0405 1.05985 6.1113 0.00901499 1.74671C-0.00445804 1.67883 -0.00269686 1.60884 0.0134095 1.54154C0.0295159 1.47424 0.0600229 1.41121 0.102765 1.35678C0.145507 1.30236 0.199402 1.25783 0.260968 1.22623C0.322534 1.19463 0.390073 1.17671 0.45921 1.17371C0.47921 1.17371 0.479249 1.16371 0.499249 1.15871C2.07974 0.874933 3.69259 0.817351 5.28929 0.987704C5.41579 1.00343 5.53429 1.05752 5.62913 1.1427C5.67589 1.16149 5.71727 1.19175 5.74925 1.2307C6.97925 2.7127 7.51905 4.66971 8.79905 6.11071C9.41905 6.81071 9.61942 6.69471 9.67943 5.73371C9.70775 5.32129 9.71086 4.90753 9.68919 4.49471C9.62919 3.41571 9.24909 2.47071 9.08909 1.42171C9.05895 1.28436 9.08441 1.14065 9.15941 1.0217C9.17637 0.903064 9.23091 0.793134 9.31566 0.708392C9.4004 0.62365 9.5105 0.568664 9.62913 0.551699C11.1537 0.452925 12.6825 0.432235 14.2092 0.489703C14.3038 0.460465 14.4052 0.462152 14.4988 0.494525C14.5923 0.526898 14.673 0.588277 14.7292 0.669711C14.7864 0.686354 14.8381 0.718212 14.8786 0.761889C14.9192 0.805567 14.9469 0.859425 14.9592 0.917712C15.1391 1.86004 15.1998 2.82126 15.1394 3.7787C15.1294 4.2387 15.1191 4.70271 15.1091 5.16271C15.0991 5.42571 15.0993 5.6897 15.0993 5.9527C14.9993 6.4387 15.1894 6.62371 15.6594 6.51071C16.4494 6.59771 16.6591 5.9267 17.0491 5.3107C17.2791 4.9447 17.4992 4.5677 17.7092 4.1857C18.2092 3.2857 18.569 2.34271 19.029 1.42771C19.0619 1.35456 19.1135 1.29131 19.1784 1.24428C19.2434 1.19725 19.3194 1.16808 19.3992 1.1597C19.4453 1.13367 19.4963 1.11766 19.5491 1.1127C21.3886 0.975475 23.2381 1.05402 25.0593 1.34671Z" fill="#5476A4"/>
</symbol></svg>